<?xml version="1.0" encoding="UTF-8" standalone="no"?>
<!-- Created with Inkscape (http://www.inkscape.org/) -->

<svg
   xmlns:dc="http://purl.org/dc/elements/1.1/"
   xmlns:cc="http://creativecommons.org/ns#"
   xmlns:rdf="http://www.w3.org/1999/02/22-rdf-syntax-ns#"
   xmlns:svg="http://www.w3.org/2000/svg"
   xmlns="http://www.w3.org/2000/svg"
   xmlns:sodipodi="http://sodipodi.sourceforge.net/DTD/sodipodi-0.dtd"
   xmlns:inkscape="http://www.inkscape.org/namespaces/inkscape"
   width="256"
   height="256"
   id="svg2"
   version="1.1"
   inkscape:version="0.48.4 r9939"
   inkscape:export-filename="ic_stat_notify.png"
   inkscape:export-xdpi="580"
   inkscape:export-ydpi="580"
   sodipodi:docname="Nouveau document 1">
  <defs
     id="defs4" />
  <sodipodi:namedview
     id="base"
     pagecolor="#000000"
     bordercolor="#666666"
     borderopacity="1.0"
     inkscape:pageopacity="0"
     inkscape:pageshadow="2"
     inkscape:zoom="1.4"
     inkscape:cx="332.39204"
     inkscape:cy="-5.1554143"
     inkscape:document-units="px"
     inkscape:current-layer="g3952"
     showgrid="false"
     width="256px"
     inkscape:showpageshadow="true"
     borderlayer="false"
     showborder="true"
     inkscape:window-width="1680"
     inkscape:window-height="994"
     inkscape:window-x="0"
     inkscape:window-y="27"
     inkscape:window-maximized="1" />
  <metadata
     id="metadata7">
    <rdf:RDF>
      <cc:Work
         rdf:about="">
        <dc:format>image/svg+xml</dc:format>
        <dc:type
           rdf:resource="http://purl.org/dc/dcmitype/StillImage" />
        <dc:title></dc:title>
      </cc:Work>
    </rdf:RDF>
  </metadata>
  <g
     inkscape:label="Calque 1"
     inkscape:groupmode="layer"
     id="layer1"
     transform="translate(0,-796.3622)">
    <g
       id="g3952">
      <path
         transform="matrix(0.72474553,0,0,0.76551414,-57.856605,797.45661)"
         d="m 405.57626,168.36926 a 145.71451,142.68405 0 1 1 -291.42901,0 145.71451,142.68405 0 1 1 291.42901,0 z"
         sodipodi:ry="142.68405"
         sodipodi:rx="145.71451"
         sodipodi:cy="168.36926"
         sodipodi:cx="259.86176"
         id="path3950"
         style="fill:none;fill-opacity:1;stroke:#ffffff;stroke-width:10.74040371000000071;stroke-linecap:butt;stroke-miterlimit:4;stroke-opacity:1;stroke-dasharray:none"
         sodipodi:type="arc" />
      <path
         style="fill:#ffffff;fill-opacity:1;stroke:none"
         d="m 104.73705,888.15887 c 26.26397,32.07235 30.92461,55.14136 45.20433,83.84267 14.27972,28.70126 34.34518,38.89086 34.34518,38.89086 -26.26531,-6.4585 -51.19937,-39.74197 -64.14468,-64.14468 -9.20581,-17.72121 -11.11168,-37.12311 -14.89975,-47.98224 -3.64567,-10.45093 -14.142134,-25.25382 -22.475892,-33.84011 -8.333759,-8.5863 -17.561619,-14.34754 -10.354064,-20.45559 7.207555,-6.10805 24.313209,27.47267 26.76904,33.58757 25.287366,19.75937 51.625336,46.1034 63.639616,65.40737 12.01428,19.30398 27.80957,51.53652 20.70812,67.68018 -2.27284,-5.3032 -10.30146,-19.95326 -22.98097,-39.90097 -12.67951,-19.94772 -20.54821,-55.08983 -55.81093,-83.08506 z"
         id="path3962"
         inkscape:connector-curvature="0"
         sodipodi:nodetypes="czccsszczczc" />
    </g>
  </g>
</svg>
